[img]http://img42.imageshack.us/img42/4672/ledgeee.jpg[/img]
[code]
Man On a Ledge 2012 CAM READNFO XVID AC3-26K

Imdb: 
http://www.imdb.com/title/tt1568338/

Plot:
As a police psychologist works to talk down an ex-con who is threatening to jump from a Manhattan 

hotel rooftop, the biggest diamond heist ever committed is in motion...

Sources:
NOGRP FOR VIDEO +AUDIO

Notes:
READNFO BECAUSE...THE SOURCE VIDEO WAS NOT CROPPED AND HAD A AVERY BAD AR AND WAS DARK!!... FIXED 

THESE ISSUES NOW SO ENJOY!! IT IS IN SYNC :)

Greetz:
Xtreme 

Encode|FYA|ILLUMANTI|CM8|RX|VISION|HDSCENE|NIGHTMAREZ|xTriLL|DTRG|CRYS|REMIXHD|BIDA|RX|REFILL|INSPiRAL

|SIC|ZOMBIESZ|HOPE|Anonymous|GooN
To all the people who have helped me :P you know who you are

Anything to offer email us @: 26k@hushmail.me

Video
ID                                       : 0
Format                                   : MPEG-4 Visual
Format profile                           : Advanced Simple@L5
Format settings, BVOP                    : 2
Format settings, QPel                    : No
Format settings, GMC                     : No warppoints
Format settings, Matrix                  : Default (H.263)
Codec ID                                 : XVID
Codec ID/Hint                            : XviD
Duration                                 : 1h 36mn
Bit rate                                 : 1 500 Kbps
Width                                    : 720 pixels
Height                                   : 320 pixels
Display aspect ratio                     : 2.25:1
Frame rate                               : 25.000 fps
Color space                              : YUV
Chroma subsampling                       : 4:2:0
Bit depth                                : 8 bits
Scan type                                : Progressive
Compression mode                         : Lossy
Bits/(Pixel*Frame)                       : 0.260
Stream size                              : 1.01 GiB (92%)
Writing library                          : XviD 63

Audio
ID                                       : 1
Format                                   : AC-3
Format/Info                              : Audio Coding 3
Mode extension                           : CM (complete main)
Codec ID                                 : 2000
Duration                                 : 1h 36mn
Bit rate mode                            : Constant
Bit rate                                 : 128 Kbps
Channel(s)                               : 2 channels
Channel positions                        : Front: L R
Sampling rate                            : 44.1 KHz
Bit depth                                : 16 bits
Compression mode                         : Lossy
Stream size                              : 88.4 MiB (8%)
Alignment                                : Aligned on interleaves
Interleave, duration                     : 35 ms (0.87 video frame)

[/code]
Screens:
[img]http://img29.imageshack.us/img29/1541/vlcsnap2012020519h55m47.png[/img]
[img]http://img40.imageshack.us/img40/5065/vlcsnap2012020519h55m44.png[/img]
[img]http://img846.imageshack.us/img846/7199/vlcsnap2012020519h55m40.png[/img]
[img]http://img210.imageshack.us/img210/299/vlcsnap2012020519h55m37.png[/img]
[img]http://img715.imageshack.us/img715/1139/vlcsnap2012020519h55m33.png[/img]

[img]http://img851.imageshack.us/img851/5503/26ks.jpg[/img]
Thank you smallz for banner!